<mxfile host="app.diagrams.net" modified="2023-12-06T15:39:05.633Z" agent="Mozilla/5.0 (Macintosh; Intel Mac OS X 10_15_7) AppleWebKit/537.36 (KHTML, like Gecko) Chrome/119.0.0.0 Safari/537.36" etag="GN6PpoJ2q8AePk1Edh73" version="22.1.6" type="device">
  <diagram name="Page-1" id="Lg_hzDZUprGLhWsZikG_">
    <mxGraphModel dx="1681" dy="941" grid="1" gridSize="10" guides="1" tooltips="1" connect="1" arrows="1" fold="1" page="1" pageScale="1" pageWidth="827" pageHeight="1169" math="0" shadow="0">
      <root>
        <mxCell id="0" />
        <mxCell id="1" parent="0" />
        <mxCell id="8xh9c_1VjRXezwoNakNP-5" style="edgeStyle=orthogonalEdgeStyle;rounded=0;orthogonalLoop=1;jettySize=auto;html=1;exitX=1;exitY=0.5;exitDx=0;exitDy=0;entryX=0;entryY=0.5;entryDx=0;entryDy=0;" edge="1" parent="1" source="8xh9c_1VjRXezwoNakNP-1" target="8xh9c_1VjRXezwoNakNP-2">
          <mxGeometry relative="1" as="geometry" />
        </mxCell>
        <mxCell id="8xh9c_1VjRXezwoNakNP-1" value="Local S" style="rounded=0;whiteSpace=wrap;html=1;" vertex="1" parent="1">
          <mxGeometry x="80" y="480" width="120" height="60" as="geometry" />
        </mxCell>
        <mxCell id="8xh9c_1VjRXezwoNakNP-2" value="Local S&#39;" style="rounded=0;whiteSpace=wrap;html=1;" vertex="1" parent="1">
          <mxGeometry x="430" y="480" width="120" height="60" as="geometry" />
        </mxCell>
        <mxCell id="8xh9c_1VjRXezwoNakNP-6" style="edgeStyle=orthogonalEdgeStyle;rounded=0;orthogonalLoop=1;jettySize=auto;html=1;exitX=0.5;exitY=1;exitDx=0;exitDy=0;entryX=0.5;entryY=0;entryDx=0;entryDy=0;" edge="1" parent="1" source="8xh9c_1VjRXezwoNakNP-3" target="8xh9c_1VjRXezwoNakNP-4">
          <mxGeometry relative="1" as="geometry" />
        </mxCell>
        <mxCell id="8xh9c_1VjRXezwoNakNP-3" value="Global S" style="rounded=0;whiteSpace=wrap;html=1;" vertex="1" parent="1">
          <mxGeometry x="250" y="380" width="120" height="60" as="geometry" />
        </mxCell>
        <mxCell id="8xh9c_1VjRXezwoNakNP-4" value="Global S&#39;" style="rounded=0;whiteSpace=wrap;html=1;" vertex="1" parent="1">
          <mxGeometry x="250" y="585" width="120" height="60" as="geometry" />
        </mxCell>
        <mxCell id="8xh9c_1VjRXezwoNakNP-7" value="Effectful context&amp;nbsp;" style="text;html=1;align=center;verticalAlign=middle;resizable=0;points=[];autosize=1;strokeColor=none;fillColor=none;" vertex="1" parent="1">
          <mxGeometry x="304" y="460" width="110" height="30" as="geometry" />
        </mxCell>
        <mxCell id="8xh9c_1VjRXezwoNakNP-8" value="Pure Context" style="text;html=1;align=center;verticalAlign=middle;resizable=0;points=[];autosize=1;strokeColor=none;fillColor=none;" vertex="1" parent="1">
          <mxGeometry x="214" y="510" width="90" height="30" as="geometry" />
        </mxCell>
      </root>
    </mxGraphModel>
  </diagram>
</mxfile>
